<?xml version="1.0" encoding="utf-8"?><!DOCTYPE svg PUBLIC "-//W3C//DTD SVG 1.1//EN" "http://www.w3.org/Graphics/SVG/1.1/DTD/svg11.dtd"><svg version="1.1" xmlns="http://www.w3.org/2000/svg" xmlns:xlink="http://www.w3.org/1999/xlink" width="32" height="32" viewBox="0 0 32 32" data-tags="ibm"><g fill="#444" transform="scale(0.03125 0.03125)"><path fill="rgb(5, 74, 218)" d="M0 688.811h199.125v28.501h-199.125zM0 634.112h199.125v28.587h-199.125zM56.747 579.541h85.461v28.629h-85.461zM56.747 525.013h85.461v28.587h-85.461zM56.747 470.4h85.461v28.629h-85.461zM56.747 415.744h85.461v28.629h-85.461zM0 361.216h199.125v28.587h-199.125zM0 306.645h199.125v28.587h-199.125zM227.499 662.699h306.219c5.12-8.789 9.045-18.475 11.392-28.587h-317.568zM509.867 525.013h-225.408v28.587h249.301c-6.575-11.055-14.514-20.488-23.748-28.464l-0.146-0.123zM284.416 470.4v28.629h225.493c9.515-8.021 17.493-17.664 23.851-28.629zM533.717 361.216h-306.219v28.587h317.568c-2.85-10.867-6.732-20.375-11.67-29.212l0.321 0.625zM439.595 306.645h-212.096v28.587h285.227c-19.124-17.718-44.813-28.587-73.041-28.587-0.032 0-0.063 0-0.095 0l0.005-0zM284.416 415.744h85.333v28.629h-85.333zM455.125 444.373h89.259c2.517-9.131 3.84-18.773 3.84-28.629h-93.099zM284.416 579.541h85.291v28.629h-85.333zM455.125 579.541v28.629h93.099c0-9.813-1.323-19.499-3.84-28.629zM227.499 717.099l212.053 0.299c28.459 0 54.101-10.965 73.259-28.587h-285.312zM568.917 688.811h142.165v28.501h-142.165zM568.917 634.112h142.165v28.587h-142.165zM625.707 579.541h85.333v28.629h-85.333zM625.707 525.013h85.333v28.587h-85.333zM750.677 361.216h-181.76v28.587h191.573zM731.819 306.645h-162.901v28.544h172.715zM881.707 688.811h142.293v28.501h-142.293zM881.707 634.112h142.293v28.587h-142.293zM881.707 579.541h85.333v28.629h-85.333zM881.707 525.013h85.333v28.587h-85.333zM881.707 499.029h85.333v-28.629h-162.603l-8.021 23.125-8.021-23.125h-162.688v28.629h85.333v-26.283l9.088 26.283h152.533l9.045-26.283zM967.083 415.744h-143.787l-9.813 28.629h153.6zM861.141 306.645l-9.856 28.544h172.715v-28.544zM796.416 717.099l9.813-28.288h-19.669zM777.557 662.699h37.717l10.155-28.587h-57.899zM758.4 608.171h76.032l10.027-28.629h-96.128zM739.285 553.6h114.304l9.771-28.587h-133.888zM625.707 444.373h153.685l-9.856-28.629h-143.829zM832.427 389.803h191.573v-28.587h-181.845z" /></g></svg>