<?xml version="1.0" encoding="utf-8"?><!DOCTYPE svg PUBLIC "-//W3C//DTD SVG 1.1//EN" "http://www.w3.org/Graphics/SVG/1.1/DTD/svg11.dtd"><svg version="1.1" xmlns="http://www.w3.org/2000/svg" xmlns:xlink="http://www.w3.org/1999/xlink" width="32" height="32" viewBox="0 0 32 32" data-tags="samsung"><g fill="#444" transform="scale(0.03125 0.03125)"><path fill="rgb(20, 40, 160)" d="M845.508 438.647l1.958 114.918h-0.981l-33.25-114.918h-54.771v144.747h36.186l-1.954-118.827h0.981l35.695 118.827h52.326v-144.747zM156.484 438.647l-27.383 146.219h39.612l20.049-133.013h0.977l19.563 133.009h39.121l-26.897-146.214zM377.519 438.647l-18.091 111.497h-0.981l-18.091-111.497h-59.661l-2.935 146.219h36.676l0.981-131.55h0.486l24.448 131.546h37.167l24.452-131.541h0.981l0.973 131.541h36.676l-3.422-146.214zM67.486 543.296c1.463 3.422 0.977 8.316 0.486 10.761-0.977 4.89-4.399 9.779-14.182 9.779-9.289 0-14.669-5.376-14.669-13.205v-14.178h-39.121v11.247c0 32.764 25.916 42.543 53.303 42.543 26.406 0 48.41-9.293 51.836-33.254 1.954-12.715 0.486-21.026 0-23.962-6.848-30.805-62.592-39.607-66.509-56.725-0.486-2.935-0.486-5.867 0-7.825 0.981-4.89 4.403-9.779 13.205-9.779s13.696 5.376 13.696 13.205v8.802h36.672v-10.27c0-31.787-28.851-36.676-49.391-36.676-25.916 0-47.433 8.802-51.345 32.273-0.981 6.357-1.468 12.228 0.486 19.563 5.871 30.319 58.197 39.121 65.527 57.702zM543.3 543.296c1.463 3.426 0.973 7.825 0.486 10.761-0.981 4.89-4.403 9.779-14.182 9.779-9.293 0-14.669-5.376-14.669-13.205v-14.178h-39.125v11.247c0 32.273 25.429 42.057 52.817 42.057 26.406 0 47.923-8.802 51.345-33.254 1.958-12.715 0.491-20.54 0-23.962-5.867-30.319-61.129-39.612-65.037-56.235-0.491-2.935-0.491-5.871 0-7.829 0.977-4.89 4.399-9.779 13.201-9.779 8.311 0 13.696 5.376 13.696 13.205v8.802h36.181v-10.27c0-31.787-28.361-36.676-48.896-36.676-25.92 0-46.95 8.311-50.859 32.273-0.981 6.357-0.981 12.228 0.486 19.563 5.871 30.319 57.216 38.63 64.555 57.702zM666.53 562.859c10.27 0 13.201-6.848 14.178-10.761 0.491-1.463 0.491-3.913 0.491-5.376v-108.075h37.163v105.139c0 2.935 0 8.311-0.486 9.779-2.445 27.388-23.962 36.19-50.859 36.19-26.893 0-48.41-8.802-50.859-36.19 0-1.468-0.486-6.844-0.486-9.779v-105.139h37.163v108.075c0 1.954 0 3.908 0.491 5.376 0 3.913 2.935 10.761 13.205 10.761zM971.674 561.391c10.761 0 14.182-6.848 15.159-10.761 0.491-1.463 0.491-3.913 0.491-5.376v-21.030h-15.159v-21.517h51.836v39.125c0 2.931 0 4.885-0.491 9.779-2.445 26.893-25.429 36.186-51.345 36.186-25.92 0-48.9-9.293-51.345-36.186-0.491-4.894-0.491-6.848-0.491-9.783v-61.611c0-2.449 0.491-7.339 0.491-9.783 3.422-27.388 25.429-36.19 51.345-36.19s48.414 8.802 51.345 36.19c0.491 4.399 0.491 9.779 0.491 9.779v4.89h-36.676v-8.311c0 0 0-3.426-0.491-5.38-0.486-3.422-3.422-10.756-14.669-10.756-10.756 0-13.696 6.844-14.669 10.756-0.491 1.954-0.491 4.403-0.491 6.848v66.995c0 1.954 0 3.908 0.491 5.376 0 3.913 3.913 10.761 14.178 10.761z" /></g></svg>